<svg id="Layer_1" data-name="Layer 1" xmlns="http://www.w3.org/2000/svg" xmlns:xlink="http://www.w3.org/1999/xlink" viewBox="0 0 256 256"><defs><style>.cls-1{fill:url(#radial-gradient);}</style><radialGradient id="radial-gradient" cx="128.55" cy="98.84" fy="43.26784934871402" r="128.44" gradientUnits="userSpaceOnUse"><stop offset="0" stop-color="#fff"/><stop offset="0.07" stop-color="#fefbf4"/><stop offset="0.2" stop-color="#fcf2d8"/><stop offset="0.36" stop-color="#f8e3a9"/><stop offset="0.46" stop-color="#f5d888"/><stop offset="0.68" stop-color="#ac885f"/><stop offset="0.89" stop-color="#6d433d"/><stop offset="0.99" stop-color="#55282f"/></radialGradient></defs><polygon class="cls-1" points="65.25 215.06 190.98 215.06 229.83 100.45 128.12 29.61 26.4 100.45 65.25 215.06"/><path d="M237.72,89.11,136,18.27a13.85,13.85,0,0,0-15.79,0L18.51,89.11a13.81,13.81,0,0,0-5.19,15.77L52.17,219.5a13.82,13.82,0,0,0,13.08,9.38H191a13.82,13.82,0,0,0,13.08-9.38l38.85-114.62A13.81,13.81,0,0,0,237.72,89.11ZM191,215.06H134.84v-89.7C134.46,108,144.21,93,146.7,89.42c22.81,2.57,44.07,9.87,62.29,21.5a.68.68,0,0,0,.88-1A108,108,0,0,0,142.5,73.38V66.69a2.84,2.84,0,0,0-2.85-2.85H116.57a2.85,2.85,0,0,0-2.85,2.85v6.68a108,108,0,0,0-67.5,36.53.69.69,0,0,0,.52,1.13.7.7,0,0,0,.37-.11c18.25-11.65,39.55-19,62.4-21.51,2.43,3.54,12,18.59,11.61,36v89.7H65.25L26.4,100.45,128.12,29.61l101.71,70.84Z"/></svg>