<?xml version="1.0" standalone="no"?>
<!DOCTYPE svg PUBLIC "-//W3C//DTD SVG 20010904//EN"
 "http://www.w3.org/TR/2001/REC-SVG-20010904/DTD/svg10.dtd">
<svg version="1.0" xmlns="http://www.w3.org/2000/svg"
 width="700.000000pt" height="700.000000pt" viewBox="0 0 700.000000 700.000000"
 preserveAspectRatio="xMidYMid meet">
<metadata>
Created by potrace 1.14, written by Peter Selinger 2001-2017
</metadata>
<g transform="translate(0.000000,700.000000) scale(0.100000,-0.100000)"
fill="#000000" stroke="none">
<path d="M3417 6558 c-59 -12 -105 -40 -310 -183 -106 -74 -199 -139 -207
-145 -144 -100 -553 -384 -575 -400 -31 -22 -329 -230 -845 -588 -168 -117
-313 -218 -322 -224 -9 -7 -137 -96 -284 -198 -146 -102 -303 -212 -348 -245
-93 -69 -147 -141 -169 -225 -27 -107 -18 -144 128 -575 75 -220 153 -452 175
-515 101 -300 282 -835 415 -1225 80 -236 171 -504 201 -595 129 -382 156
-457 176 -497 31 -63 101 -129 176 -165 l67 -33 1805 0 1805 0 57 23 c66 27
148 97 183 156 22 38 46 104 160 441 24 72 116 344 205 605 88 261 185 547
215 635 30 88 109 320 175 515 67 195 128 375 135 400 8 25 62 185 120 355
l106 310 -4 85 c-3 67 -10 97 -32 143 -29 60 -90 130 -141 163 -16 10 -110 75
-209 144 -420 293 -585 408 -667 465 -48 33 -245 170 -438 305 -193 135 -358
250 -367 255 -9 6 -24 16 -32 22 -9 7 -57 41 -107 75 -101 70 -343 239 -612
427 -299 210 -376 260 -422 277 -51 18 -157 25 -213 12z"/>
</g>
</svg>
